<?xml version="1.0" encoding="utf-8"?>
<!-- Generator: Adobe Illustrator 24.0.3, SVG Export Plug-In . SVG Version: 6.00 Build 0)  -->
<svg version="1.1" id="Layer_1" xmlns="http://www.w3.org/2000/svg" xmlns:xlink="http://www.w3.org/1999/xlink" x="0px" y="0px"
	 viewBox="0 0 986.25 322.39" style="enable-background:new 0 0 986.25 322.39;" xml:space="preserve">
<style type="text/css">
	.st0{fill:#BE0812;}
</style>
<g>
	<path class="st0" d="M73.82,212.01h40.05l-0.79,27.54c-6.78-0.38-13.72-0.38-20.5-0.38H72.56l-0.95,50.15H37.25
		c2.05-19.95,4.89-79.78,4.89-126.7h81.51l-1.1,27.54c-8.83-0.38-17.66-0.38-26.49-0.38h-21.6L73.82,212.01z"/>
	<path class="st0" d="M134.84,289.32c3.94-41.98,5.68-84.34,5.99-126.7h34.05c-0.79,12.73-3.94,69.71-4.41,99.54h17.66
		c10.09,0,37.2,0,47.29-0.57l-18.75,27.73H134.84z"/>
	<path class="st0" d="M261.31,252.85l-13.97,36.47h-36.5c11.27-22.22,47.14-104.47,55.87-126.7h40
		c12.22,42.55,25.39,84.72,38.88,126.7h-35.23c-2.7-12.35-6.35-24.31-10-36.47H261.31z M294.8,226.26l-9.84-36.28l-14.28,36.28
		H294.8z"/>
	<path class="st0" d="M345.59,289.32c3.58-33.81,8.14-95.17,9.44-126.7h43.94c1.14,10.83,11.23,52.24,14.97,78.64h0.33
		c12.04-51.1,19.2-64.01,21.97-78.64h44.75c-0.98,18.43-2.93,74.46-2.93,126.7H448.6c0.65-11.21,2.44-42.74,2.28-89.85h-0.33
		c-7.81,29.44-16.76,59.46-25.22,89.85H396.2c-7.97-46.54-14.48-68.95-17.41-89.66h-0.33c-2.44,26.02-4.56,73.51-4.72,89.66H345.59z
		"/>
	<path class="st0" d="M528.38,252.85l-13.87,36.47h-36.26c11.19-22.22,46.83-104.47,55.5-126.7h39.73
		c12.14,42.55,25.23,84.72,38.63,126.7h-35c-2.68-12.35-6.31-24.31-9.93-36.47H528.38z M561.65,226.26l-9.77-36.28l-14.19,36.28
		H561.65z"/>
	<path class="st0" d="M692.04,241.83h-14.19l0.95-26.59h45.41c-1.58,23.93-2.52,47.68-3.15,71.42c-14.03,3.04-28.38,4.94-46.04,4.94
		c-54.39,0-60.07-41.03-60.07-61.36c0-35.52,20.5-69.9,66.69-69.9c13.24,0,25.86,1.9,38.31,4.94l1.1,29.82
		c-10.56-3.99-21.76-7.03-32.95-7.03c-23.02,0-40.05,14.44-40.05,44.07c0,21.08,10.72,32.86,27.91,32.86
		c5.2,0,10.25-1.33,15.14-2.66L692.04,241.83z"/>
	<path class="st0" d="M772.93,252.85l-13.87,36.47h-36.26c11.19-22.22,46.83-104.47,55.5-126.7h39.73
		c12.14,42.55,25.23,84.72,38.63,126.7h-35c-2.68-12.35-6.31-24.31-9.93-36.47H772.93z M806.19,226.26l-9.77-36.28l-14.19,36.28
		H806.19z"/>
	<path class="st0" d="M934.85,193.78c-7.09-3.42-15.14-6.27-22.86-6.27c-4.89,0-14.19,2.09-14.19,10.07
		c0,15.01,37.37,29.06,37.37,57.18c0,12.92-7.57,36.85-41.31,36.85c-10.56,0-21.13-1.9-31.38-4.18l-2.36-31.34
		c8.2,4.37,17.97,8.36,27.12,8.36c5.2,0,14.82-1.14,14.82-9.88c0-14.63-37.37-29.82-37.37-59.46c0-8.74,4.26-34.76,40.05-34.76
		c9.46,0,18.92,1.52,28.06,3.61L934.85,193.78z"/>
</g>
<g>
	<path d="M368.07,105.81c-5.85,0-9.02,3.41-9.02,9.74c0,5.5,2.87,8.36,8.36,8.36c2.15,0,4.66-0.6,7.65-1.49l-1.13,7.23
		c-3.05,0.84-5.73,1.31-8.18,1.31c-9.38,0-14.76-5.56-14.76-15.29c0-10.45,6.03-16.73,15.95-16.73c2.45,0,5.2,0.36,8.24,1.13v7.05
		C372.49,106.34,370.16,105.81,368.07,105.81z"/>
	<path d="M395.08,123.79l0.54-8.54c-0.9,0.6-1.85,1.08-2.93,1.43l-3.94,1.31c-2.81,0.9-4.24,1.55-4.24,3.7
		c0,1.91,1.37,3.11,3.82,3.11c1.13,0,2.69-0.36,4.66-0.9l-1.79,6.21c-1.97,0.54-3.7,0.78-5.2,0.78c-6.03,0-9.68-3.4-9.68-8.78
		c0-4.66,2.51-7.47,7.71-8.96l6.21-1.85c3.52-1.02,5.38-1.79,5.38-3.58c0-1.91-1.55-3.11-4.48-3.11c-2.99,0-6.51,1.08-10.69,3.05
		l0.96-7.29c3.76-0.96,7.41-1.55,11.41-1.55c8.01,0,11.05,2.45,11.05,8.48c0,0.66,0,1.55-0.06,2.69l-0.6,15.11
		c-0.06,0.78-0.06,2.45-0.06,5.02h-8.72C394.84,128.21,394.96,126.06,395.08,123.79z"/>
	<path d="M416.58,115.54l-0.18,14.58h-8.84c0.96-7.11,1.79-20.31,2.03-39.55h8.54C417.18,99.36,416.7,107.72,416.58,115.54z"/>
	<path d="M437.31,98.88c9.8,0,15.35,5.56,15.35,15.23c0,10.63-6.15,16.85-16.55,16.85c-9.74,0-15.23-5.56-15.23-15.35
		C420.89,105.27,427.1,98.88,437.31,98.88z M429.25,115.54c0,5.85,2.45,8.84,7.23,8.84c5.2,0,7.77-3.29,7.77-10.04
		c0-5.91-2.33-8.84-7.11-8.84C431.94,105.51,429.25,108.85,429.25,115.54z"/>
	<path d="M456.91,99.71h7.59v4.48c1.85-3.58,4.42-5.26,8.24-5.26c0.6,0,1.31,0,2.09,0.12l0.18,7.23c-1.19-0.18-2.21-0.24-2.99-0.24
		c-4.42,0-6.45,2.09-7.35,6.81c-0.42,2.33-0.72,8.06-0.84,17.26h-8.42C456.43,120.5,456.91,110.35,456.91,99.71z"/>
	<path d="M514.32,94.04c0-1.13,0-2.33-0.06-3.46h8.6c-0.9,10.45-1.61,23.66-1.79,39.55h-7.89v-4.06c-2.21,3.17-5.74,4.9-9.8,4.9
		c-8.12,0-12.61-4.96-12.61-13.8c0-11.11,6.21-17.8,17.09-17.8c2.15,0,4.18,0.3,6.27,0.9C514.26,98.22,514.32,96.13,514.32,94.04z
		 M509.06,106.23c-6.27,0-9.92,3.7-9.92,10.21c0,4.84,2.51,7.65,6.63,7.65c4.96,0,7.77-3.11,8-9.14l0.24-8
		C512.65,106.46,510.97,106.23,509.06,106.23z"/>
	<path d="M534.21,115.42c-0.06,0.78-0.06,1.25-0.06,1.43c0,4.6,2.93,7.17,8.36,7.17c2.93,0,5.62-0.6,8.24-1.85l-1.61,7.47
		c-3.41,0.84-6.39,1.31-8.9,1.31c-9.26,0-14.76-5.56-14.76-15.05c0-10.45,6.27-16.97,15.53-16.97c8.24,0,12.31,4.36,12.31,13.02
		c0,1.14-0.06,2.27-0.18,3.46H534.21z M545.32,110.17c0-3.46-1.79-5.32-4.9-5.32c-3.05,0-5.32,2.03-5.91,5.32H545.32z"/>
	<path d="M573.34,90.57h8.24c-0.54,4.3-0.78,8.66-0.78,12.96c2.27-3.23,5.67-4.66,10.39-4.66c8.36,0,11.59,3.11,11.59,10.22
		c0,3.41-0.42,9.44-0.42,18.04c0,0.96,0,1.97,0,2.99h-8.42c0.78-9.14,0.96-14.99,0.96-17.5c0-5.14-1.31-7.41-5.67-7.41
		c-7.65,0-9.2,6.69-9.2,21.33c0,1.14,0,2.33,0,3.58h-8.42C572.81,118.83,573.34,105.69,573.34,90.57z"/>
	<path d="M622.75,98.88c9.8,0,15.35,5.56,15.35,15.23c0,10.63-6.15,16.85-16.55,16.85c-9.74,0-15.23-5.56-15.23-15.35
		C606.32,105.27,612.53,98.88,622.75,98.88z M614.68,115.54c0,5.85,2.45,8.84,7.23,8.84c5.2,0,7.77-3.29,7.77-10.04
		c0-5.91-2.33-8.84-7.11-8.84C617.37,105.51,614.68,108.85,614.68,115.54z"/>
	<path d="M653.04,130.72c-7.94,0-12.49-5.02-12.49-13.92c0-11.35,6.15-17.98,17.21-17.98c4.18,0,8.84,0.66,14.1,1.79
		c-1.14,20.25-0.84,32.14-1.61,35.66c-1.02,4.42-5.79,7.17-13.62,7.17c-3.58,0-8-0.66-13.32-1.97l-1.08-7.41
		c4.84,2.21,9.14,3.23,12.49,3.23c6.15,0,8.06-2.27,8.06-8.72c0-0.48-0.06-1.02-0.06-1.55C660.44,129.4,657.04,130.72,653.04,130.72
		z M658.83,106.23c-6.27,0-9.92,3.7-9.92,10.21c0,4.84,2.51,7.65,6.63,7.65c4.96,0,7.83-3.17,8-9.14l0.24-8
		C662.42,106.46,660.74,106.23,658.83,106.23z"/>
	<path d="M693.42,123.79l0.54-8.54c-0.9,0.6-1.85,1.08-2.93,1.43l-3.94,1.31c-2.81,0.9-4.24,1.55-4.24,3.7
		c0,1.91,1.37,3.11,3.82,3.11c1.14,0,2.69-0.36,4.66-0.9l-1.79,6.21c-1.97,0.54-3.7,0.78-5.2,0.78c-6.03,0-9.68-3.4-9.68-8.78
		c0-4.66,2.51-7.47,7.71-8.96l6.21-1.85c3.52-1.02,5.38-1.79,5.38-3.58c0-1.91-1.55-3.11-4.48-3.11c-2.99,0-6.51,1.08-10.69,3.05
		l0.96-7.29c3.76-0.96,7.41-1.55,11.41-1.55c8,0,11.05,2.45,11.05,8.48c0,0.66,0,1.55-0.06,2.69l-0.6,15.11
		c-0.06,0.78-0.06,2.45-0.06,5.02h-8.72C693.18,128.21,693.3,126.06,693.42,123.79z"/>
	<path d="M707.34,99.71h7.59v4.48c1.85-3.58,4.42-5.26,8.24-5.26c0.6,0,1.31,0,2.09,0.12l0.18,7.23c-1.2-0.18-2.21-0.24-2.99-0.24
		c-4.42,0-6.45,2.09-7.35,6.81c-0.42,2.33-0.72,8.06-0.84,17.26h-8.42C706.86,120.5,707.34,110.35,707.34,99.71z"/>
</g>
<path class="st0" d="M779.18,146.97c0,0-9.16-17.3,0-28.84s18.32-14.25,13.23-35.97c0,0,11.88,4.41,9.5,20.36
	c-2.38,15.95-0.34,20.02,4.41,19.68s9.16-4.75,6.11-11.54l-0.68-4.41c0,0,20.02,14.25,4.75,40.72c0,0,29.12-16.29,25.73-41.06
	c-3.39-24.77-10.8-27.82-28.78-43.09c-17.98-15.27-8.48-41.73-8.48-41.73s-20.7,6.11-25.45,25.45c0,0-3.39,16.63,2.71,24.09
	c0,0,4.07,10.86-1.36,13.4c-5.43,2.54-10.86-0.17-11.54-8.99c-0.68-8.82-9.5-12.89-9.5-12.89s6.11,12.22,0,25.11
	S735.75,125.6,779.18,146.97z"/>
</svg>
