<svg id="Capa_1" data-name="Capa 1" xmlns="http://www.w3.org/2000/svg" viewBox="0 0 500 200"><defs><style>.cls-1{fill:#001d85;}</style></defs><title>GAS 1-01</title><path class="cls-1" d="M273.77,138.67c-8.87-14.86-29.06-10.6-42.4-20.19-3-6.39,7.69-10.21,14.58-6.6,3.73.38,4.54,8.23,6,8.76l22.34-1.32c-2.88-41.8-91.41-23.56-59,14.78,5.53,7.44,29.2,8.12,36.79,15.8,6.75,11.23-14,16.09-20.4,7.13-2.93-14.19-14.36-6.34-25.27-7.2-.28,2.07-18.63-50.38-19.92-52.57.54-.33-3.58.07-10-.06-10.21.32-18.22-.7-16.75.5L138,155.61V131H100.37v16.37h16.28c-.7,5.31,2.57,7.24-4.5,9.85-49.53,20.53-30.54-74.68,1.88-35l22.87-4.08c-5.09-17.93-18.32-23.24-39.62-22.24-77,9.07-33.39,116.61,36.23,71.61l-3.17,8.42c.15-.24,26.41.48,24.92-.25,1.27-3,3.6-14.89,4.26-12.74,7.94.75,29.71-2,27.74,2,1,18.71,19.85,8.61,28.8,11l-2.8-7.43c20.91,19.76,77.83,6.53,60.51-29.83m-109.46,7.24,8.59-28.31,8.7,28.31Z"/><path class="cls-1" d="M291.49,100.06c.95,11.51-22.76,13.07-16.81-4.51,2.53-5.33,15.59-7.67,16.81,4.51m-1.76,0c.27-8.94-15.91-10.61-14.29,1.9,1.53,7.29,13.86,7.32,14.29-1.9m-11.34-4.81c2.72-.45,12.85.29,5.18,5.41,1.11.6,1,.29,3.14,4.22-3.76,1.62-6.12-8.15-5.93,0h-2.39Zm2.39,4.08c1.6.83,5.56-2.72,0-2.41Z"/><path class="cls-1" d="M296.11,177.61H453.47V26.86H296.11ZM406,172.81H349V89.92c-56.4,15-35.12,5.9-38.43-37.83,0,0,28.82,4.79,48-20.43H406Z"/></svg>