<svg xmlns="http://www.w3.org/2000/svg" width="296.501" height="148.867" viewBox="0 0 296.501 148.867"><defs><style>.a{fill:#fff;}.b{fill:#f60;}</style></defs><g transform="translate(-756.1 -719.8)"><g transform="translate(756.1 719.8)"><g transform="translate(0 3.561)"><g transform="translate(3.013)"><path class="a" d="M40.729,50.951a13.527,13.527,0,0,1,3.013,8.628,12.693,12.693,0,0,1-2.191,7.4,14.471,14.471,0,0,1-6.163,5.2,22.814,22.814,0,0,1-9.45,1.917H4.3V20H24.98a23.01,23.01,0,0,1,9.587,1.917,13.075,13.075,0,0,1,6.026,5.067,12.749,12.749,0,0,1,2.054,7.121,12.1,12.1,0,0,1-2.465,7.806,16,16,0,0,1-6.711,4.656A10.622,10.622,0,0,1,40.729,50.951ZM13.2,42.734H24.158a10.473,10.473,0,0,0,6.848-2.054,7.074,7.074,0,0,0,2.465-5.752,7.074,7.074,0,0,0-2.465-5.752,10.473,10.473,0,0,0-6.848-2.054H13.2V42.734ZM32.238,64.783a7.322,7.322,0,0,0,2.6-6.026,7.981,7.981,0,0,0-2.739-6.3,10.985,10.985,0,0,0-7.258-2.328H13.065V67.111H25.117A11.6,11.6,0,0,0,32.238,64.783Z" transform="translate(-4.3 -16.439)"/><path class="a" d="M49.1,17.4V75.194H40.2V17.4Z" transform="translate(8.966 -17.4)"/><path class="a" d="M55.7,38.245a20.271,20.271,0,0,1,7.4-7.806A20.585,20.585,0,0,1,73.369,27.7a18.569,18.569,0,0,1,8.9,2.054,19.763,19.763,0,0,1,6.026,4.93v-6.3h9.039v43H88.3V64.951a17.53,17.53,0,0,1-6.163,5.067,18.955,18.955,0,0,1-8.9,2.054A18.59,18.59,0,0,1,63.1,69.2a20.391,20.391,0,0,1-7.258-7.943A24.754,24.754,0,0,1,53.1,49.612,23.223,23.223,0,0,1,55.7,38.245ZM86.379,42.08a12.783,12.783,0,0,0-4.793-4.93,12.973,12.973,0,0,0-6.437-1.78,13.238,13.238,0,0,0-6.437,1.643,12.783,12.783,0,0,0-4.793,4.93,15.128,15.128,0,0,0-1.78,7.669,15.659,15.659,0,0,0,1.78,7.806,13.189,13.189,0,0,0,4.793,5.067,11.9,11.9,0,0,0,6.3,1.78,12.026,12.026,0,0,0,6.437-1.78,13.148,13.148,0,0,0,4.793-5.067,15.659,15.659,0,0,0,1.78-7.806A14.583,14.583,0,0,0,86.379,42.08Z" transform="translate(13.733 -13.594)"/><path class="a" d="M94.406,38.145a19.363,19.363,0,0,1,7.4-7.806A20.69,20.69,0,0,1,112.757,27.6c5.2,0,9.45,1.233,12.873,3.7a17.722,17.722,0,0,1,6.848,10.545h-9.587a9.856,9.856,0,0,0-3.7-4.93,12.164,12.164,0,0,0-15.2,2.054c-2.191,2.6-3.287,6.163-3.287,10.819s1.1,8.217,3.287,10.819a10.765,10.765,0,0,0,8.765,3.835c5.2,0,8.491-2.328,10.271-6.848h9.587A19.15,19.15,0,0,1,125.631,68c-3.424,2.6-7.669,3.835-12.737,3.835A22.038,22.038,0,0,1,101.938,69.1a18.536,18.536,0,0,1-7.4-7.806A24.754,24.754,0,0,1,91.8,49.649,22.977,22.977,0,0,1,94.406,38.145Z" transform="translate(28.029 -13.631)"/><path class="a" d="M145.082,53.692l19.858,21.5H152.888L137,56.705V75.194h-8.9V17.4H137V50.953l15.613-18.762H164.94Z" transform="translate(41.446 -17.4)"/></g><g transform="translate(0 69.298)"><path class="a" d="M15.932,119.9A26.915,26.915,0,0,1,5.8,110.044a28.108,28.108,0,0,1-3.7-14.38A27.607,27.607,0,0,1,5.8,81.421a25.969,25.969,0,0,1,10.134-9.861,29.181,29.181,0,0,1,27.938,0,25.622,25.622,0,0,1,10,9.861,27.962,27.962,0,0,1,3.7,14.243,28.467,28.467,0,0,1-3.7,14.38,25.622,25.622,0,0,1-10,9.861A28.628,28.628,0,0,1,29.9,123.465,27.212,27.212,0,0,1,15.932,119.9Zm23.556-6.574a16.2,16.2,0,0,0,6.574-6.985A21.766,21.766,0,0,0,48.39,95.8a23.445,23.445,0,0,0-2.328-10.545,17.979,17.979,0,0,0-6.574-6.985A18.858,18.858,0,0,0,29.9,75.806a18.5,18.5,0,0,0-9.587,2.465,16.2,16.2,0,0,0-6.574,6.985A21.766,21.766,0,0,0,11.413,95.8a23.445,23.445,0,0,0,2.328,10.545,17.979,17.979,0,0,0,6.574,6.985A18.858,18.858,0,0,0,29.9,115.8,18.858,18.858,0,0,0,39.488,113.331Z" transform="translate(-2.1 -68)"/><path class="a" d="M63.106,77.98a15.128,15.128,0,0,1,7.669-1.78v9.176H68.447c-3.424,0-6.163.822-7.943,2.6s-2.739,4.793-2.739,9.176v22.6H49V76.885h8.9v6.3A13.572,13.572,0,0,1,63.106,77.98Z" transform="translate(15.23 -64.97)"/><path class="a" d="M71.4,86.745a20.271,20.271,0,0,1,7.4-7.806A20.585,20.585,0,0,1,89.069,76.2a18.569,18.569,0,0,1,8.9,2.054A19.763,19.763,0,0,1,104,83.185v-6.3h9.039v43H104v-6.437a17.53,17.53,0,0,1-6.163,5.067,18.955,18.955,0,0,1-8.9,2.054A18.589,18.589,0,0,1,78.8,117.7a20.391,20.391,0,0,1-7.258-7.943A24.754,24.754,0,0,1,68.8,98.112C68.8,93.73,69.485,90.032,71.4,86.745Zm30.677,3.835a12.783,12.783,0,0,0-4.793-4.93,12.973,12.973,0,0,0-6.437-1.78,13.238,13.238,0,0,0-6.437,1.643,12.783,12.783,0,0,0-4.793,4.93,15.128,15.128,0,0,0-1.78,7.669,15.659,15.659,0,0,0,1.78,7.806,13.189,13.189,0,0,0,4.793,5.067,11.9,11.9,0,0,0,6.3,1.78,12.026,12.026,0,0,0,6.437-1.78,13.148,13.148,0,0,0,4.793-5.067,15.659,15.659,0,0,0,1.78-7.806A16.092,16.092,0,0,0,102.079,90.58Z" transform="translate(22.547 -64.97)"/><path class="a" d="M140.277,78.254a14.021,14.021,0,0,1,6.3,6.3,20.358,20.358,0,0,1,2.328,10v25.336H140.14V95.921c0-3.835-.959-6.848-2.876-8.9a10.308,10.308,0,0,0-7.943-3.15,10.514,10.514,0,0,0-7.943,3.15c-1.917,2.054-2.876,5.067-2.876,8.9v24.1h-8.9V76.885h8.9v4.93a14.262,14.262,0,0,1,5.615-4.109,18.608,18.608,0,0,1,7.258-1.506A19.765,19.765,0,0,1,140.277,78.254Z" transform="translate(37.623 -64.97)"/><path class="a" d="M173.471,78.328a16.946,16.946,0,0,1,6.026,4.93v-6.3h9.039v43.688a21.807,21.807,0,0,1-2.465,10.545,17.652,17.652,0,0,1-7.258,7.258,22.328,22.328,0,0,1-11.23,2.6c-5.889,0-10.682-1.37-14.517-4.109a15.279,15.279,0,0,1-6.574-11.093h8.765a9.454,9.454,0,0,0,4.382,5.478,14.583,14.583,0,0,0,7.943,2.054,12.212,12.212,0,0,0,8.765-3.287c2.191-2.191,3.287-5.341,3.287-9.587v-7.121a17.53,17.53,0,0,1-6.163,5.067,18.4,18.4,0,0,1-8.765,2.054,19.393,19.393,0,0,1-10.271-2.876,20.713,20.713,0,0,1-7.4-7.943A24.754,24.754,0,0,1,144.3,98.049a24.2,24.2,0,0,1,2.739-11.5,20.271,20.271,0,0,1,7.4-7.806A20.585,20.585,0,0,1,164.706,76,22.414,22.414,0,0,1,173.471,78.328Zm4.245,12.326a12.783,12.783,0,0,0-4.793-4.93,12.973,12.973,0,0,0-6.437-1.78,13.238,13.238,0,0,0-6.437,1.643,12.783,12.783,0,0,0-4.793,4.93,15.128,15.128,0,0,0-1.78,7.669,15.659,15.659,0,0,0,1.78,7.806,13.189,13.189,0,0,0,4.793,5.067,11.9,11.9,0,0,0,6.3,1.78,12.026,12.026,0,0,0,6.437-1.78,13.148,13.148,0,0,0,4.793-5.067,15.659,15.659,0,0,0,1.78-7.806A14.583,14.583,0,0,0,177.716,90.654Z" transform="translate(50.446 -65.044)"/><path class="a" d="M225.081,101.673H192.213a11.678,11.678,0,0,0,3.835,8.217,12.276,12.276,0,0,0,8.491,3.15c4.793,0,8.217-2.054,10.134-6.026h9.587a19.485,19.485,0,0,1-7.121,9.724,21.292,21.292,0,0,1-12.737,3.835,22.951,22.951,0,0,1-11.093-2.739,19.148,19.148,0,0,1-7.669-7.806A24.754,24.754,0,0,1,182.9,98.386a24.36,24.36,0,0,1,2.739-11.641,19.687,19.687,0,0,1,7.532-7.806A23.1,23.1,0,0,1,204.4,76.2a21.453,21.453,0,0,1,10.819,2.6,19.189,19.189,0,0,1,7.4,7.4,22.15,22.15,0,0,1,2.6,11.093A22.3,22.3,0,0,1,225.081,101.673Zm-9.039-7.122a10.1,10.1,0,0,0-3.561-7.943,12.845,12.845,0,0,0-8.491-3.013,11.812,11.812,0,0,0-7.943,2.876,13,13,0,0,0-3.972,7.943h23.967Z" transform="translate(64.709 -64.97)"/></g></g><path class="b" d="M215.429,32.056c.274-9.039-6.437-17.256-19.721-17.256-13.147,0-20.543,7.532-20.543,16.845a17.036,17.036,0,0,0,4.656,11.778C170.782,47.668,166.4,54.79,166.4,62.87,166.4,75.059,176.124,83,191.325,83A33.973,33.973,0,0,0,213.1,76.017l6.163,5.889h18.625L222,66.294a71.1,71.1,0,0,0,5.752-10.545l4.519-8.217H216.25l-3.424,5.889c-.411.959-.822,1.78-1.233,2.6L195.571,40.41c-3.424-3.7-5.2-6.437-5.2-9.039,0-2.876,2.191-4.656,5.2-4.656,2.876,0,4.93,1.643,4.93,5.2ZM191.873,69.992c-6.437,0-10.271-3.7-10.271-8.354,0-3.7,2.191-6.985,6.711-9.313l14.654,14.106A16.849,16.849,0,0,1,191.873,69.992Z" transform="translate(58.612 -14.8)"/></g></g></svg>